<svg width="87" height="50" viewBox="0 0 87 50" fill="none" xmlns="http://www.w3.org/2000/svg">
<path d="M0.605 49.85V0.514998H20.95V6.43H7.56V44H20.95V49.85H0.605ZM41.23 44.715C38.5433 44.715 36.0083 44.325 33.625 43.545C31.285 42.7217 29.335 41.4867 27.775 39.84L31.35 33.795L31.61 33.275L32.195 33.6C32.2817 33.9033 32.39 34.2283 32.52 34.575C32.6933 34.9217 33.04 35.3333 33.56 35.81C34.6433 36.6333 35.835 37.305 37.135 37.825C38.4783 38.3017 39.93 38.5617 41.49 38.605C42.4867 38.605 43.3967 38.4967 44.22 38.28C45.0867 38.0633 45.8233 37.7383 46.43 37.305C47.0367 36.8717 47.5133 36.33 47.86 35.68C48.2067 34.9867 48.38 34.2067 48.38 33.34C48.38 32.82 48.315 32.3217 48.185 31.845C48.055 31.3683 47.8167 30.9133 47.47 30.48C47.1667 30.0033 46.7117 29.5483 46.105 29.115C45.4983 28.6383 44.74 28.14 43.83 27.62C42.92 27.0567 41.7717 26.4717 40.385 25.865C37.6117 24.6517 35.4017 23.4167 33.755 22.16C32.1517 20.9033 31.0033 19.56 30.31 18.13C29.6167 16.7 29.27 15.075 29.27 13.255C29.27 11.2617 29.8117 9.485 30.895 7.925C32.0217 6.365 33.56 5.13 35.51 4.22C37.46 3.31 39.6917 2.855 42.205 2.855C43.895 2.855 45.4767 3.05 46.95 3.44C48.4233 3.83 49.7883 4.415 51.045 5.195C52.3017 5.93166 53.45 6.885 54.49 8.055L50.2 12.995L49.81 13.45L49.29 13.06C49.2467 12.7133 49.16 12.3883 49.03 12.085C48.9433 11.7383 48.6617 11.305 48.185 10.785C47.3617 10.005 46.4733 9.485 45.52 9.225C44.61 8.965 43.5267 8.835 42.27 8.835C41.36 8.835 40.5583 8.94333 39.865 9.16C39.1717 9.37667 38.565 9.68 38.045 10.07C37.5683 10.46 37.1783 10.915 36.875 11.435C36.615 11.9117 36.485 12.41 36.485 12.93C36.485 13.45 36.55 13.9483 36.68 14.425C36.81 14.8583 37.0267 15.2917 37.33 15.725C37.6767 16.1583 38.1533 16.6133 38.76 17.09C39.41 17.5233 40.2333 18 41.23 18.52C42.2267 19.04 43.4617 19.625 44.935 20.275C46.9717 21.2283 48.6833 22.16 50.07 23.07C51.4567 23.9367 52.54 24.8683 53.32 25.865C54.1433 26.8183 54.7283 27.88 55.075 29.05C55.4217 30.1767 55.595 31.455 55.595 32.885C55.595 34.835 55.0967 36.72 54.1 38.54C53.1033 40.36 51.5433 41.855 49.42 43.025C47.2967 44.1517 44.5667 44.715 41.23 44.715ZM86.08 49.85H65.735V44H79.125V6.43H65.735V0.514998H86.08V49.85Z" fill="#7839EE"/>
</svg>
